HIERARCHY
ROOT Hips
{
	OFFSET 0.000000 71.427986 0.000000
	CHANNELS 6 Xposition Yposition Zposition Xrotation Yrotation Zrotation
	JOINT Pelvis
	{
		OFFSET 0.000000 0.000000 0.000000
		CHANNELS 3 Xrotation Yrotation Zrotation
		JOINT LeftUpLeg
		{
			OFFSET 6.797100 -2.508499 -1.318700
			CHANNELS 3 Xrotation Yrotation Zrotation
			JOINT LeftLeg
			{
				OFFSET 0.069008 -29.241863 0.690200
				CHANNELS 3 Xrotation Yrotation Zrotation
				JOINT LeftFoot
				{
					OFFSET -0.069008 -29.568123 -0.266800
					CHANNELS 3 Xrotation Yrotation Zrotation
					JOINT LeftToeBase
					{
						OFFSET 3.145500 -8.631000 16.059900
						CHANNELS 3 Xrotation Yrotation Zrotation
						End Site
						{
							OFFSET 0.000000 18.501587 0.000000
						}
					}
				}
			}
			JOINT Left_ShortSleeve
			{
				OFFSET 0.265923 -10.480953 1.153800
				CHANNELS 3 Xrotation Yrotation Zrotation
				End Site
				{
					OFFSET 1.725763 19.823879 0.000000
				}
			}
		}
		JOINT RightUpLeg
		{
			OFFSET -6.797100 -2.508499 -1.318700
			CHANNELS 3 Xrotation Yrotation Zrotation
			JOINT RightLeg
			{
				OFFSET -0.082453 -29.241932 0.688000
				CHANNELS 3 Xrotation Yrotation Zrotation
				JOINT RightFoot
				{
					OFFSET 0.082453 -29.568058 -0.264600
					CHANNELS 3 Xrotation Yrotation Zrotation
					JOINT RightToeBase
					{
						OFFSET -3.115300 -8.682800 16.113400
						CHANNELS 3 Xrotation Yrotation Zrotation
						End Site
						{
							OFFSET 0.000000 18.567114 0.000000
						}
					}
				}
			}
			JOINT Right_ShortSleeve
			{
				OFFSET -0.265923 -10.480953 1.153800
				CHANNELS 3 Xrotation Yrotation Zrotation
				End Site
				{
					OFFSET -1.725766 19.823910 0.000000
				}
			}
		}
	}
	JOINT Spine
	{
		OFFSET 0.000000 13.368103 0.470500
		CHANNELS 3 Xrotation Yrotation Zrotation
		JOINT Spine1
		{
			OFFSET 0.147000 13.837402 0.538800
			CHANNELS 3 Xrotation Yrotation Zrotation
			JOINT Spine2
			{
				OFFSET 0.168000 16.242897 -1.435500
				CHANNELS 3 Xrotation Yrotation Zrotation
				JOINT Neck
				{
					OFFSET 0.217200 18.631500 -1.679100
					CHANNELS 3 Xrotation Yrotation Zrotation
					JOINT Head
					{
						OFFSET 0.000000 6.599396 1.385900
						CHANNELS 3 Xrotation Yrotation Zrotation
						JOINT Hat
						{
							OFFSET -0.532200 27.220596 -10.096100
							CHANNELS 3 Xrotation Yrotation Zrotation
							End Site
							{
								OFFSET 0.000000 22.029861 0.000000
							}
						}
						JOINT HairD
						{
							OFFSET -10.777400 17.437393 -1.325900
							CHANNELS 3 Xrotation Yrotation Zrotation
							JOINT HairD1
							{
								OFFSET -3.290299 -11.051193 1.062200
								CHANNELS 3 Xrotation Yrotation Zrotation
								End Site
								{
									OFFSET 0.000000 11.579437 0.000000
								}
							}
						}
						JOINT HairB
						{
							OFFSET -10.777400 17.437393 1.467900
							CHANNELS 3 Xrotation Yrotation Zrotation
							JOINT HairB1
							{
								OFFSET -1.561200 -12.956299 3.590200
								CHANNELS 3 Xrotation Yrotation Zrotation
								End Site
								{
									OFFSET 0.000000 13.534866 0.000000
								}
							}
						}
						JOINT HairA
						{
							OFFSET 9.713100 17.437393 1.467900
							CHANNELS 3 Xrotation Yrotation Zrotation
							JOINT HairA1
							{
								OFFSET 1.561200 -12.956299 3.590200
								CHANNELS 3 Xrotation Yrotation Zrotation
								End Site
								{
									OFFSET 0.000000 13.534866 0.000000
								}
							}
						}
						JOINT HairC
						{
							OFFSET 9.713100 17.437393 -1.325900
							CHANNELS 3 Xrotation Yrotation Zrotation
							JOINT HairC1
							{
								OFFSET 3.290300 -11.051193 1.062200
								CHANNELS 3 Xrotation Yrotation Zrotation
								End Site
								{
									OFFSET 0.000000 11.579437 0.000000
								}
							}
						}
					}
				}
				JOINT LeftShoulder
				{
					OFFSET 5.101800 15.108002 -2.763700
					CHANNELS 3 Xrotation Yrotation Zrotation
					JOINT LeftArm
					{
						OFFSET 9.825497 2.506317 -1.597400
						CHANNELS 3 Xrotation Yrotation Zrotation
						JOINT LeftForeArm
						{
							OFFSET 21.966244 0.000000 0.000000
							CHANNELS 3 Xrotation Yrotation Zrotation
							JOINT LeftHand
							{
								OFFSET 33.879036 0.000000 0.000000
								CHANNELS 3 Xrotation Yrotation Zrotation
								JOINT LeftHandThumb1
								{
									OFFSET 6.715286 -2.359680 3.363841
									CHANNELS 3 Xrotation Yrotation Zrotation
									JOINT LeftHandThumb2
									{
										OFFSET 2.507072 -1.447464 1.447461
										CHANNELS 3 Xrotation Yrotation Zrotation
										JOINT LeftHandThumb3
										{
											OFFSET 2.898338 -1.673355 1.673357
											CHANNELS 3 Xrotation Yrotation Zrotation
											End Site
											{
												OFFSET -0.295959 3.727692 -0.131651
											}
										}
									}
								}
								JOINT LeftHandIndex1
								{
									OFFSET 14.190811 -0.254547 3.840278
									CHANNELS 3 Xrotation Yrotation Zrotation
									JOINT LeftHandIndex2
									{
										OFFSET 3.551727 0.000000 -0.000000
										CHANNELS 3 Xrotation Yrotation Zrotation
										JOINT LeftHandIndex3
										{
											OFFSET 2.894196 0.000000 0.000000
											CHANNELS 3 Xrotation Yrotation Zrotation
											End Site
											{
												OFFSET -1.000603 2.690872 0.366626
											}
										}
									}
								}
								JOINT LeftHandMiddle1
								{
									OFFSET 13.776489 0.000000 0.000000
									CHANNELS 3 Xrotation Yrotation Zrotation
									JOINT LeftHandMiddle2
									{
										OFFSET 3.438232 0.000000 0.000000
										CHANNELS 3 Xrotation Yrotation Zrotation
										JOINT LeftHandMiddle3
										{
											OFFSET 3.691551 0.000000 0.000000
											CHANNELS 3 Xrotation Yrotation Zrotation
											End Site
											{
												OFFSET -1.082298 3.499527 0.457670
											}
										}
									}
								}
								JOINT LeftHandRing1
								{
									OFFSET 13.966164 -0.268127 -3.067488
									CHANNELS 3 Xrotation Yrotation Zrotation
									JOINT LeftHandRing2
									{
										OFFSET 3.162567 0.000000 0.000000
										CHANNELS 3 Xrotation Yrotation Zrotation
										JOINT LeftHandRing3
										{
											OFFSET 3.324348 0.000000 0.000000
											CHANNELS 3 Xrotation Yrotation Zrotation
											End Site
											{
												OFFSET -0.861900 3.184998 0.405154
											}
										}
									}
								}
								JOINT LeftHandPinky1
								{
									OFFSET 13.131393 -0.168503 -5.746925
									CHANNELS 3 Xrotation Yrotation Zrotation
									JOINT LeftHandPinky2
									{
										OFFSET 2.849182 0.000000 0.000000
										CHANNELS 3 Xrotation Yrotation Zrotation
										JOINT LeftHandPinky3
										{
											OFFSET 2.805038 0.000000 0.000000
											CHANNELS 3 Xrotation Yrotation Zrotation
											End Site
											{
												OFFSET -0.882500 2.642609 0.325652
											}
										}
									}
								}
							}
							JOINT Left_Sleeve
							{
								OFFSET 6.592125 -0.646545 0.805568
								CHANNELS 3 Xrotation Yrotation Zrotation
								End Site
								{
									OFFSET -0.000179 20.275787 -0.000000
								}
							}
						}
					}
				}
				JOINT RightShoulder
				{
					OFFSET -5.731700 15.108002 -2.763700
					CHANNELS 3 Xrotation Yrotation Zrotation
					JOINT RightArm
					{
						OFFSET -9.825497 2.506317 -1.597400
						CHANNELS 3 Xrotation Yrotation Zrotation
						JOINT RightForeArm
						{
							OFFSET -21.966242 0.000000 0.000000
							CHANNELS 3 Xrotation Yrotation Zrotation
							JOINT RightHand
							{
								OFFSET -33.879032 0.000000 0.000000
								CHANNELS 3 Xrotation Yrotation Zrotation
								JOINT RightHandThumb1
								{
									OFFSET -6.715286 -2.359680 3.363841
									CHANNELS 3 Xrotation Yrotation Zrotation
									JOINT RightHandThumb2
									{
										OFFSET -2.507072 -1.447464 1.447461
										CHANNELS 3 Xrotation Yrotation Zrotation
										JOINT RightHandThumb3
										{
											OFFSET -2.898338 -1.673355 1.673357
											CHANNELS 3 Xrotation Yrotation Zrotation
											End Site
											{
												OFFSET 0.295959 3.727692 -0.131651
											}
										}
									}
								}
								JOINT RightHandIndex1
								{
									OFFSET -14.190811 -0.254547 3.840278
									CHANNELS 3 Xrotation Yrotation Zrotation
									JOINT RightHandIndex2
									{
										OFFSET -3.551727 0.000000 -0.000000
										CHANNELS 3 Xrotation Yrotation Zrotation
										JOINT RightHandIndex3
										{
											OFFSET -2.894196 0.000000 0.000000
											CHANNELS 3 Xrotation Yrotation Zrotation
											End Site
											{
												OFFSET 1.000603 2.690872 0.366626
											}
										}
									}
								}
								JOINT RightHandMiddle1
								{
									OFFSET -13.776489 0.000000 0.000000
									CHANNELS 3 Xrotation Yrotation Zrotation
									JOINT RightHandMiddle2
									{
										OFFSET -3.438232 0.000000 0.000000
										CHANNELS 3 Xrotation Yrotation Zrotation
										JOINT RightHandMiddle3
										{
											OFFSET -3.691551 0.000000 0.000000
											CHANNELS 3 Xrotation Yrotation Zrotation
											End Site
											{
												OFFSET 1.082298 3.499527 0.457670
											}
										}
									}
								}
								JOINT RightHandRing1
								{
									OFFSET -13.966164 -0.268127 -3.067488
									CHANNELS 3 Xrotation Yrotation Zrotation
									JOINT RightHandRing2
									{
										OFFSET -3.162567 0.000000 0.000000
										CHANNELS 3 Xrotation Yrotation Zrotation
										JOINT RightHandRing3
										{
											OFFSET -3.324348 0.000000 0.000000
											CHANNELS 3 Xrotation Yrotation Zrotation
											End Site
											{
												OFFSET 0.861900 3.184998 0.405154
											}
										}
									}
								}
								JOINT RightHandPinky1
								{
									OFFSET -13.131393 -0.168503 -5.746925
									CHANNELS 3 Xrotation Yrotation Zrotation
									JOINT RightHandPinky2
									{
										OFFSET -2.849182 0.000000 0.000000
										CHANNELS 3 Xrotation Yrotation Zrotation
										JOINT RightHandPinky3
										{
											OFFSET -2.805038 0.000000 0.000000
											CHANNELS 3 Xrotation Yrotation Zrotation
											End Site
											{
												OFFSET 0.882500 2.642609 0.325652
											}
										}
									}
								}
							}
							JOINT Right_Sleeve
							{
								OFFSET -6.592125 -0.646545 0.805568
								CHANNELS 3 Xrotation Yrotation Zrotation
								End Site
								{
									OFFSET 0.000179 20.275787 -0.000000
								}
							}
						}
					}
				}
				JOINT Bind_Right_JacketString
				{
					OFFSET -3.534800 11.969597 7.200700
					CHANNELS 3 Xrotation Yrotation Zrotation
					JOINT Bind_Right_JacketString1
					{
						OFFSET -0.319900 -6.102600 2.794100
						CHANNELS 3 Xrotation Yrotation Zrotation
						End Site
						{
							OFFSET 0.000000 6.719452 0.000000
						}
					}
				}
				JOINT Bind_Left_JacketString
				{
					OFFSET 2.904800 11.969597 7.200700
					CHANNELS 3 Xrotation Yrotation Zrotation
					JOINT Bind_Left_JacketString1
					{
						OFFSET 0.364800 -5.904503 3.186800
						CHANNELS 3 Xrotation Yrotation Zrotation
						End Site
						{
							OFFSET 0.000000 6.719513 0.000000
						}
					}
				}
				JOINT HairE
				{
					OFFSET 5.915200 17.612701 -11.592200
					CHANNELS 3 Xrotation Yrotation Zrotation
					JOINT HairE1
					{
						OFFSET 0.289200 -7.171898 -1.284500
						CHANNELS 3 Xrotation Yrotation Zrotation
						End Site
						{
							OFFSET 0.000000 7.291756 0.000000
						}
					}
				}
				JOINT HairF
				{
					OFFSET -0.864800 17.612701 -11.592200
					CHANNELS 3 Xrotation Yrotation Zrotation
					JOINT HairF1
					{
						OFFSET 0.000000 -14.087097 -2.127501
						CHANNELS 3 Xrotation Yrotation Zrotation
						End Site
						{
							OFFSET 0.000000 14.246841 0.000000
						}
					}
				}
				JOINT HairG
				{
					OFFSET -8.087700 17.612701 -11.592200
					CHANNELS 3 Xrotation Yrotation Zrotation
					JOINT HairG1
					{
						OFFSET -0.293600 -6.081398 -0.910100
						CHANNELS 3 Xrotation Yrotation Zrotation
						End Site
						{
							OFFSET 0.000000 6.156120 0.000000
						}
					}
				}
			}
		}
	}
	JOINT Pouch
	{
		OFFSET 0.000000 4.394501 10.847300
		CHANNELS 3 Xrotation Yrotation Zrotation
		End Site
		{
			OFFSET 0.000000 21.880577 0.000000
		}
	}
	JOINT Bag
	{
		OFFSET -13.229000 4.813004 -0.593300
		CHANNELS 3 Xrotation Yrotation Zrotation
		End Site
		{
			OFFSET 0.000000 21.880577 0.000000
		}
	}
	JOINT OccupyGuyFacialAnim_Joint
	{
		OFFSET 1.000000 -70.206398 -1.655000
		CHANNELS 3 Xrotation Yrotation Zrotation
		End Site
		{
			OFFSET 0.000000 21.880577 0.000000
		}
	}
}
MOTION
Frames: 4
Frame Time: 0.033333
1.019548 72.552643 24.763046 -80.390821 0.640685 3.725309 -0.000000 -0.000000 0.000000 -64.929431 -8.068406 9.059297 99.446161 -1.418489 -2.526520 46.069489 3.988938 3.636980 0.000000 0.000000 -0.000000 0.000000 -0.000001 0.000001 -69.946738 9.717440 -7.117471 108.187089 2.161322 2.357924 42.456128 -5.919293 -1.688031 -0.000000 -0.000001 -0.000000 -0.000002 0.000001 -0.000000 11.164388 -0.012473 -0.014457 22.328797 -0.000110 0.001494 22.328788 -0.000109 0.001494 10.000129 -0.000035 -0.000063 18.886356 -0.000053 -0.000048 0.000000 -0.000000 -0.000000 0.000000 -0.000000 -0.000000 0.000000 -0.000000 0.000000 0.000000 -0.000000 -0.000000 -0.000000 0.000000 -0.000000 0.000000 -0.000000 -0.000000 -0.000000 0.000000 -0.000000 0.000000 -0.000000 -0.000000 0.000000 -0.000000 -0.000000 23.925553 22.207530 -5.015287 41.449515 8.301184 -62.239211 0.007575 -77.498455 0.007125 55.665246 -3.346339 53.960339 -6.286768 -0.818984 10.820976 -0.647332 5.164721 4.966079 -0.000000 0.000003 0.000003 -1.526326 1.130072 -10.694004 0.224698 1.696101 -18.154622 0.000001 -0.000001 0.000002 -0.783642 2.595008 -12.461066 -0.071273 -0.389977 -12.195036 -0.000000 0.000001 -0.000001 1.736034 7.661841 -15.595671 -0.295270 -0.721793 -18.846085 -0.000000 -0.000002 -0.000004 3.971321 13.083791 -13.806345 -0.663672 -3.508121 -20.442498 0.000001 -0.000003 0.000002 -0.000000 -0.000002 0.000000 28.040122 -22.797022 8.078384 28.385645 -6.369633 61.662538 0.010803 81.672527 -0.010449 59.955250 2.278071 -42.799379 -6.290440 0.817701 -10.818990 -0.647658 -5.164373 -4.966386 0.000001 -0.000003 -0.000000 0.097412 -0.894069 11.779939 0.124720 -1.116960 17.135198 -0.000001 0.000001 0.000000 -0.071919 -2.437692 12.492317 -0.087674 0.543767 12.189235 0.000001 -0.000002 0.000001 -0.186212 -8.188589 15.330600 -0.189331 0.083415 18.859230 0.000000 0.000000 -0.000004 -0.219450 -14.048350 12.822885 -0.402095 2.038863 20.632516 -0.000002 0.000003 -0.000003 -0.000000 -0.000005 0.000002 -0.000002 -0.000000 -0.000000 0.000000 0.000000 0.000000 -0.000002 -0.000000 -0.000000 -0.000002 -0.000000 -0.000000 -0.000002 -0.000000 -0.000000 0.000000 0.000000 0.000000 -0.000002 -0.000000 -0.000000 -0.000002 -0.000000 -0.000000 -0.000002 -0.000000 -0.000000 0.000000 0.000000 0.000000 -0.000000 -0.000000 0.000000 -0.000000 -0.000000 0.000000 -0.000000 -0.000000 0.000000 
1.019548 72.552643 24.763046 -80.390821 0.640685 3.725309 -0.000000 -0.000000 0.000000 -64.929431 -8.068406 9.059297 99.446161 -1.418489 -2.526520 46.069489 3.988938 3.636980 0.000000 0.000000 -0.000000 0.000000 -0.000001 0.000001 -69.946738 9.717440 -7.117471 108.187089 2.161322 2.357924 42.456128 -5.919293 -1.688031 -0.000000 -0.000001 -0.000000 -0.000002 0.000001 -0.000000 11.164388 -0.012473 -0.014457 22.328797 -0.000110 0.001494 22.328788 -0.000109 0.001494 10.000129 -0.000035 -0.000063 18.886356 -0.000053 -0.000048 0.000000 -0.000000 -0.000000 0.000000 -0.000000 -0.000000 0.000000 -0.000000 0.000000 0.000000 -0.000000 -0.000000 -0.000000 0.000000 -0.000000 0.000000 -0.000000 -0.000000 -0.000000 0.000000 -0.000000 0.000000 -0.000000 -0.000000 0.000000 -0.000000 -0.000000 23.923253 22.206830 -5.017133 41.452462 8.304344 -62.237831 0.007720 -77.500681 0.007316 55.665137 -3.345949 53.959434 -6.286770 -0.818994 10.820980 -0.647337 5.164718 4.966079 0.000002 -0.000006 0.000000 -1.526325 1.130089 -10.694004 0.224697 1.696107 -18.154615 0.000001 0.000001 -0.000000 -0.783641 2.595002 -12.461073 -0.071274 -0.389980 -12.195036 0.000000 0.000000 -0.000003 1.736034 7.661840 -15.595671 -0.295270 -0.721785 -18.846090 -0.000000 0.000005 0.000003 3.971320 13.083795 -13.806342 -0.663677 -3.508128 -20.442505 -0.000000 -0.000004 0.000004 -0.000000 0.000004 -0.000002 28.039766 -22.797705 8.076837 28.385612 -6.368099 61.663426 0.010998 81.671509 -0.010607 59.955298 2.278260 -42.799731 -6.290435 0.817719 -10.818984 -0.647662 -5.164362 -4.966395 0.000001 -0.000003 -0.000002 0.097415 -0.894065 11.779941 0.124723 -1.116947 17.135198 -0.000000 -0.000001 0.000000 -0.071915 -2.437684 12.492316 -0.087669 0.543789 12.189239 -0.000001 -0.000000 -0.000001 -0.186210 -8.188552 15.330602 -0.189333 0.083395 18.859223 0.000001 -0.000001 -0.000002 -0.219452 -14.048335 12.822882 -0.402091 2.038856 20.632511 0.000001 -0.000000 0.000002 0.000001 -0.000003 0.000001 -0.000002 -0.000000 -0.000000 0.000000 0.000000 0.000000 -0.000002 -0.000000 -0.000000 -0.000002 -0.000000 -0.000000 -0.000002 -0.000000 -0.000000 0.000000 0.000000 0.000000 -0.000002 -0.000000 -0.000000 -0.000002 -0.000000 -0.000000 -0.000002 -0.000000 -0.000000 0.000000 0.000000 0.000000 -0.000000 -0.000000 0.000000 -0.000000 -0.000000 0.000000 -0.000000 -0.000000 0.000000 
1.016467 72.551453 24.784424 -80.334779 0.665284 3.755575 -0.000000 0.000000 -0.000000 -65.009939 -8.004130 9.054826 99.455423 -1.422372 -2.526487 45.954466 3.956418 3.678453 -0.000000 -0.000001 0.000000 0.000000 0.000000 -0.000000 -70.021084 9.767955 -7.136616 108.221718 2.159768 2.357502 42.587234 -5.870327 -1.637083 0.000000 -0.000000 -0.000000 -0.000001 -0.000000 -0.000000 11.124578 -0.015579 -0.034991 22.249218 0.002813 -0.018300 22.249191 0.002815 -0.018299 10.076881 -0.008685 0.030512 18.937355 -0.049353 0.021746 -0.000000 0.000000 -0.000000 -0.000000 0.000000 -0.000000 -0.000000 0.000000 -0.000000 -0.000000 0.000000 -0.000000 -0.000000 0.000000 -0.000000 -0.000000 0.000000 -0.000000 -0.000000 0.000000 -0.000000 -0.000000 0.000000 -0.000000 -0.000000 0.000000 -0.000000 23.916522 22.203109 -5.025939 41.632114 8.477816 -62.194671 0.012580 -77.690082 0.012032 55.688308 -3.326219 53.870412 -6.286766 -0.818994 10.820982 -0.647338 5.164738 4.966070 -0.000000 0.000002 0.000002 -1.526324 1.130084 -10.694004 0.224698 1.696102 -18.154627 -0.000001 0.000003 -0.000001 -0.783639 2.594992 -12.461072 -0.071271 -0.389978 -12.195033 0.000001 0.000001 0.000001 1.736034 7.661823 -15.595666 -0.295270 -0.721773 -18.846085 -0.000001 0.000001 0.000000 3.971325 13.083775 -13.806351 -0.663679 -3.508123 -20.442502 -0.000000 -0.000000 0.000003 0.000001 -0.000002 -0.000001 28.040720 -22.812654 8.051297 28.544800 -6.356851 61.643188 0.017733 81.708925 -0.017276 59.914214 2.264437 -42.769364 -6.290435 0.817714 -10.818980 -0.647659 -5.164367 -4.966392 0.000001 0.000000 0.000001 0.097415 -0.894077 11.779934 0.124721 -1.116942 17.135205 0.000001 0.000001 -0.000001 -0.071918 -2.437696 12.492315 -0.087675 0.543791 12.189227 -0.000000 0.000001 0.000001 -0.186211 -8.188560 15.330597 -0.189336 0.083385 18.859214 -0.000003 -0.000005 -0.000001 -0.219452 -14.048339 12.822885 -0.402092 2.038884 20.632504 -0.000001 0.000001 -0.000001 -0.000001 0.000005 -0.000001 -0.000002 -0.000000 -0.000000 -0.000002 -0.000000 -0.000000 -0.000002 -0.000000 -0.000000 -0.000002 -0.000000 -0.000000 -0.000002 -0.000000 -0.000000 -0.000002 -0.000000 -0.000000 -0.000002 -0.000000 -0.000000 -0.000002 -0.000000 -0.000000 -0.000002 -0.000000 -0.000000 -0.000002 -0.000000 -0.000000 -0.000000 0.000000 -0.000000 -0.000000 0.000000 -0.000000 -0.000000 0.000000 -0.000000 
1.014067 72.550568 24.799507 -80.306222 0.690305 3.774303 -0.000000 -0.000000 -0.000001 -65.059369 -7.971908 9.061297 99.465873 -1.425407 -2.526503 45.912941 3.944437 3.688761 0.000000 -0.000000 0.000000 -0.000002 -0.000001 0.000001 -70.056595 9.799545 -7.152931 108.241088 2.159568 2.357272 42.703897 -5.839529 -1.585572 0.000000 -0.000001 0.000000 0.000001 -0.000000 -0.000000 11.104822 -0.017690 -0.046214 22.209557 0.004337 -0.027745 22.209566 0.004337 -0.027745 10.110628 -0.016109 0.043241 18.972092 -0.095220 0.043486 -0.000000 0.000000 0.000000 -0.000000 0.000000 0.000000 -0.000000 0.000000 0.000000 -0.000000 0.000000 0.000000 -0.000001 0.000000 -0.000000 -0.000000 0.000000 0.000000 -0.000001 0.000000 -0.000000 -0.000000 0.000000 0.000000 -0.000000 0.000000 0.000000 23.905590 22.192844 -5.046026 41.730926 8.606150 -62.166688 0.014879 -77.806537 0.014292 55.712784 -3.323613 53.817765 -6.286767 -0.818996 10.820971 -0.647339 5.164735 4.966081 0.000000 -0.000003 -0.000001 -1.526328 1.130083 -10.694006 0.224697 1.696107 -18.154619 0.000000 -0.000002 0.000001 -0.783639 2.595006 -12.461070 -0.071271 -0.389984 -12.195039 0.000001 -0.000001 -0.000001 1.736032 7.661846 -15.595670 -0.295267 -0.721798 -18.846088 -0.000001 0.000003 0.000002 3.971320 13.083782 -13.806347 -0.663675 -3.508123 -20.442503 -0.000000 -0.000004 0.000002 0.000000 0.000000 -0.000001 28.041183 -22.829933 8.019579 28.625208 -6.330617 61.654069 0.020848 81.702525 -0.020351 59.892003 2.268278 -42.770528 -6.290436 0.817716 -10.818986 -0.647657 -5.164380 -4.966397 0.000000 0.000002 0.000001 0.097414 -0.894093 11.779941 0.124726 -1.116931 17.135196 0.000000 -0.000001 0.000000 -0.071916 -2.437692 12.492320 -0.087673 0.543792 12.189238 0.000000 -0.000001 0.000001 -0.186209 -8.188570 15.330599 -0.189328 0.083405 18.859221 -0.000000 -0.000000 -0.000002 -0.219451 -14.048337 12.822884 -0.402092 2.038863 20.632507 0.000002 0.000001 -0.000001 -0.000001 -0.000005 0.000000 0.000002 0.000000 0.000000 0.000002 -0.000000 -0.000000 0.000002 0.000000 0.000000 0.000002 0.000000 0.000000 0.000002 0.000000 0.000000 0.000002 -0.000000 -0.000000 0.000002 0.000000 0.000000 0.000002 0.000000 0.000000 0.000002 0.000000 0.000000 0.000002 -0.000000 -0.000000 -0.000000 -0.000000 -0.000001 -0.000000 -0.000000 -0.000001 -0.000000 -0.000000 -0.000001 
